<?xml version="1.0" standalone="no"?>
<!DOCTYPE svg PUBLIC "-//W3C//DTD SVG 20010904//EN"
 "http://www.w3.org/TR/2001/REC-SVG-20010904/DTD/svg10.dtd">
<svg version="1.0" xmlns="http://www.w3.org/2000/svg"
 width="800.000000pt" height="600.000000pt" viewBox="0 0 800.000000 600.000000"
 preserveAspectRatio="xMidYMid meet">

<g transform="translate(0.000000,600.000000) scale(0.100000,-0.100000)"
fill="#000000" stroke="none">
<path d="M0 3000 l0 -3000 4000 0 4000 0 0 3000 0 3000 -4000 0 -4000 0 0
-3000z m6414 378 l56 -33 0 -70 0 -70 -59 -32 -59 -33 -56 32 -56 32 0 71 0
70 53 32 c28 18 55 32 59 33 3 0 31 -15 62 -32z m-3303 -368 c228 -144 417
-266 422 -269 8 -8 -271 -178 -308 -187 -30 -8 -618 329 -634 364 -12 25 -15
263 -5 360 l7 61 52 -33 c28 -19 238 -152 466 -296z m1171 -536 c150 -86 285
-170 301 -185 l27 -29 0 -354 c0 -322 -2 -356 -17 -375 -10 -12 -146 -96 -303
-186 -223 -129 -292 -165 -320 -165 -25 0 -63 16 -123 50 -142 82 -134 72 -80
96 l48 20 71 -43 c39 -24 75 -43 78 -43 11 0 528 300 549 318 16 14 17 40 15
336 l-3 321 -280 162 c-153 89 -282 160 -285 159 -44 -25 -495 -286 -522 -303
l-38 -23 0 -318 c0 -174 4 -322 8 -328 9 -13 159 -99 190 -109 30 -9 76 10 91
38 7 15 12 126 14 342 l2 320 40 0 40 0 3 -323 c1 -193 -2 -339 -8 -361 -5
-20 -23 -50 -40 -66 -26 -25 -40 -30 -94 -33 -54 -4 -72 0 -115 22 -113 56
-188 105 -199 131 -9 18 -12 125 -12 370 0 342 0 344 23 369 18 20 534 327
587 349 37 15 96 -11 352 -159z m-31 -299 c72 -26 119 -83 119 -145 0 -28 -2
-30 -38 -30 -33 0 -40 4 -53 32 -22 50 -60 71 -134 76 -119 8 -175 -17 -175
-78 0 -43 27 -55 179 -79 157 -25 207 -47 235 -104 37 -76 0 -164 -88 -209
-32 -17 -64 -23 -142 -26 -187 -8 -284 44 -296 158 -3 34 -2 35 38 38 39 3 41
1 56 -36 21 -54 55 -74 137 -80 138 -9 211 20 211 86 0 52 -29 67 -180 88 -58
8 -122 20 -144 26 -142 43 -136 231 10 283 54 19 210 19 265 0z"/>
</g>
</svg>
