<svg width="448" height="448" viewBox="0 0 448 448" fill="none" xmlns="http://www.w3.org/2000/svg">
<path d="M400 0H48C21.5 0 0 21.5 0 48V400C0 426.5 21.5 448 48 448H400C426.5 448 448 426.5 448 400V48C448 21.5 426.5 0 400 0ZM351.1 158.8C351.3 161.6 351.3 164.5 351.3 167.3C351.3 254 285.3 353.9 164.7 353.9C127.5 353.9 93 343.1 64 324.5C69.3 325.1 74.4 325.3 79.8 325.3C110.5 325.3 138.7 314.9 161.2 297.3C132.4 296.7 108.2 277.8 99.9 251.8C110 253.3 119.1 253.3 129.5 250.6C99.5 244.5 77 218.1 77 186.2V185.4C85.7 190.3 95.9 193.3 106.6 193.7C97.6043 187.716 90.2298 179.599 85.1347 170.072C80.0396 160.544 77.3823 149.904 77.4 139.1C77.4 126.9 80.6 115.7 86.3 106C118.6 145.8 167.1 171.8 221.5 174.6C212.2 130.1 245.5 94 285.5 94C304.4 94 321.4 101.9 333.4 114.7C348.2 111.9 362.4 106.4 375 98.9C370.1 114.1 359.8 126.9 346.2 135C359.4 133.6 372.2 129.9 384 124.8C375.1 137.9 363.9 149.5 351.1 158.8Z" fill="white" fill-opacity="0.692"/>
</svg>
